<svg id="Layer_1" data-name="Layer 1" xmlns="http://www.w3.org/2000/svg" xmlns:xlink="http://www.w3.org/1999/xlink" viewBox="0 0 64 64"><defs><style>.cls-1{fill:none;}.cls-2{clip-path:url(#clip-path);}.cls-3{fill:#fff;}</style><clipPath id="clip-path"><rect class="cls-1" x="2" y="26" width="60" height="32.36"/></clipPath></defs><rect width="64" height="64"/><g id="Vector_Smart_Object" data-name="Vector Smart Object"><g class="cls-2"><g class="cls-2"><path class="cls-3" d="M16.86,34.11a9.89,9.89,0,0,1,1.94,6.32,11.08,11.08,0,0,1-1.91,6.65,6.18,6.18,0,0,1-5.32,2.64,6.21,6.21,0,0,1-3.45-.86,6.56,6.56,0,0,1-1.68-1.77v2.17H2V26H6.5v8.28a6.68,6.68,0,0,1,1.9-1.83,5.59,5.59,0,0,1,3.11-.79,6.4,6.4,0,0,1,5.35,2.45M13.1,44.6a6.37,6.37,0,0,0,1-3.7,8.22,8.22,0,0,0-.48-3,3.32,3.32,0,0,0-3.34-2.28,3.38,3.38,0,0,0-3.4,2.23,8.48,8.48,0,0,0-.47,3.06,6.45,6.45,0,0,0,1,3.67,3.4,3.4,0,0,0,3,1.45,3.12,3.12,0,0,0,2.72-1.4"/><path class="cls-3" d="M24.87,38.78a6.84,6.84,0,0,0,1.8-.39,1.37,1.37,0,0,0,1-1.28,1.51,1.51,0,0,0-.75-1.46,4.63,4.63,0,0,0-2.18-.41,2.88,2.88,0,0,0-2.29.79,3.21,3.21,0,0,0-.64,1.58H17.43A6.64,6.64,0,0,1,18.7,33.9c1.2-1.52,3.25-2.27,6.16-2.27a10.93,10.93,0,0,1,5,1.12c1.47.74,2.21,2.16,2.21,4.23v7.9c0,.55,0,1.21,0,2a2.45,2.45,0,0,0,.27,1.2,1.7,1.7,0,0,0,.66.53v.66H28.18a4.83,4.83,0,0,1-.29-1c-.05-.31-.09-.65-.13-1A9.35,9.35,0,0,1,25.6,49a6.48,6.48,0,0,1-3.3.84,5.71,5.71,0,0,1-3.89-1.34,4.75,4.75,0,0,1-1.53-3.78,4.91,4.91,0,0,1,2.46-4.6,11,11,0,0,1,4-1.11Zm2.75,2.1a5.08,5.08,0,0,1-.87.44,8,8,0,0,1-1.21.31l-1,.19a6.89,6.89,0,0,0-2.07.61,2.07,2.07,0,0,0-1.06,1.91A2,2,0,0,0,22,46a2.48,2.48,0,0,0,1.58.52,4.72,4.72,0,0,0,2.72-.86,3.6,3.6,0,0,0,1.29-3.11Z"/><path class="cls-3" d="M35.65,43.76a3,3,0,0,0,.62,1.71,4.2,4.2,0,0,0,3.11.9A4.66,4.66,0,0,0,41.5,46a1.26,1.26,0,0,0,.79-1.18,1.29,1.29,0,0,0-.63-1.16,27.23,27.23,0,0,0-4.72-1.36,9.83,9.83,0,0,1-4.13-1.81,4,4,0,0,1-1.2-3.1,5.36,5.36,0,0,1,1.87-4.1,7.6,7.6,0,0,1,5.29-1.71A9.78,9.78,0,0,1,44,32.83a5.52,5.52,0,0,1,2.34,4.45H41.86a2.54,2.54,0,0,0-.49-1.37A3.1,3.1,0,0,0,38.84,35a3.58,3.58,0,0,0-2.1.46,1.3,1.3,0,0,0-.63,1.07,1.18,1.18,0,0,0,.67,1.13,29.41,29.41,0,0,0,4.7,1.24,8.53,8.53,0,0,1,4,1.92A4.31,4.31,0,0,1,46.84,44a5.23,5.23,0,0,1-1.91,4.18Q43,49.84,39,49.84t-6-1.71a5.55,5.55,0,0,1-1.94-4.37Z"/><path class="cls-3" d="M57.5,32.38a7,7,0,0,1,3,2.55,8.46,8.46,0,0,1,1.38,3.56A21.41,21.41,0,0,1,62,41.91H49.45a4.15,4.15,0,0,0,1.8,3.64,4.6,4.6,0,0,0,2.48.64,3.83,3.83,0,0,0,2.51-.79,3.79,3.79,0,0,0,.92-1.18h4.6a5.62,5.62,0,0,1-1.67,3.11,8.34,8.34,0,0,1-6.48,2.51,9.38,9.38,0,0,1-6.07-2.12q-2.62-2.11-2.62-6.89,0-4.47,2.37-6.86a8.26,8.26,0,0,1,6.16-2.39,9.92,9.92,0,0,1,4,.8m-6.74,3.9a4.6,4.6,0,0,0-1.2,2.66h7.76a3.75,3.75,0,0,0-1.2-2.72,4,4,0,0,0-2.67-.93,3.56,3.56,0,0,0-2.69,1"/><polygon class="cls-3" points="2.03 58.25 2.03 54.33 2.4 54.33 2.4 56.01 4.72 56.01 4.72 54.33 5.09 54.33 5.09 58.25 4.72 58.25 4.72 56.33 2.4 56.33 2.4 58.25 2.03 58.25"/><path class="cls-3" d="M7.52,58.25l1.54-3.92h.42L11,58.25H10.6L10.15,57H8.36L7.9,58.25Zm1-1.55H10l-.77-2.05Z"/><rect class="cls-3" x="13.55" y="54.33" width="0.37" height="3.92"/><path class="cls-3" d="M17.2,56.47v1.78h-.38V54.33h1.54a1.72,1.72,0,0,1,1,.24.9.9,0,0,1,.35.79,1,1,0,0,1-.15.59,1.22,1.22,0,0,1-.49.37.66.66,0,0,1,.27.17,1,1,0,0,1,.15.26,1.7,1.7,0,0,1,.06.31c0,.11,0,.22,0,.32a3.57,3.57,0,0,0,0,.37q0,.15,0,.24a.38.38,0,0,0,.05.14.18.18,0,0,0,.06.08v0h-.41a.72.72,0,0,1-.08-.27c0-.12,0-.24,0-.37s0-.25,0-.37,0-.21,0-.29A.53.53,0,0,0,19,56.7a.4.4,0,0,0-.17-.15.86.86,0,0,0-.23-.06l-.27,0Zm1.15-.32a1.48,1.48,0,0,0,.38,0A.8.8,0,0,0,19,56a.61.61,0,0,0,.21-.24.78.78,0,0,0,.08-.35.74.74,0,0,0-.08-.36.69.69,0,0,0-.22-.23,1,1,0,0,0-.3-.11,2.1,2.1,0,0,0-.36,0H17.2v1.5Z"/><path class="cls-3" d="M22.36,58.25V54.33H24a1.55,1.55,0,0,1,.31,0,1.69,1.69,0,0,1,.56.24,1.3,1.3,0,0,1,.31.35,2.33,2.33,0,0,1,.29.89,3.22,3.22,0,0,1,0,.43c0,.13,0,.26,0,.39s-.05.27-.08.4a2.35,2.35,0,0,1-.14.37,1.4,1.4,0,0,1-.22.32,1.13,1.13,0,0,1-.29.25,1.22,1.22,0,0,1-.33.14,1.36,1.36,0,0,1-.35.07,2.42,2.42,0,0,1-.38,0Zm.36-.31h.86a3.33,3.33,0,0,0,.46,0,1.35,1.35,0,0,0,.44-.15,1,1,0,0,0,.31-.27,1.62,1.62,0,0,0,.19-.37,1.84,1.84,0,0,0,.1-.42,2.93,2.93,0,0,0,0-.41,3.25,3.25,0,0,0,0-.44,1.6,1.6,0,0,0-.1-.42,1.27,1.27,0,0,0-.2-.36,1,1,0,0,0-.33-.28,1.11,1.11,0,0,0-.4-.12,3.62,3.62,0,0,0-.47,0h-.86Z"/><path class="cls-3" d="M28.4,56.47v1.78H28V54.33h1.54a1.72,1.72,0,0,1,1,.24.9.9,0,0,1,.35.79,1.12,1.12,0,0,1-.15.59,1.22,1.22,0,0,1-.49.37.73.73,0,0,1,.27.17,1,1,0,0,1,.15.26,1.7,1.7,0,0,1,.06.31c0,.11,0,.22,0,.32a3.57,3.57,0,0,0,0,.37q0,.15,0,.24a.38.38,0,0,0,.05.14.18.18,0,0,0,.06.08v0h-.41a.72.72,0,0,1-.08-.27c0-.12,0-.24,0-.37s0-.25,0-.37,0-.21,0-.29a.53.53,0,0,0-.11-.25.4.4,0,0,0-.17-.15.84.84,0,0,0-.24-.06l-.26,0Zm1.16-.32a1.48,1.48,0,0,0,.38,0,.8.8,0,0,0,.31-.14.61.61,0,0,0,.21-.24.78.78,0,0,0,.07-.35.74.74,0,0,0-.07-.36.69.69,0,0,0-.22-.23,1,1,0,0,0-.3-.11,2.19,2.19,0,0,0-.36,0H28.4v1.5Z"/><polygon class="cls-3" points="33.58 58.25 33.58 54.33 36.19 54.33 36.19 54.65 33.95 54.65 33.95 56.06 35.97 56.06 35.97 56.38 33.95 56.38 33.95 57.94 36.24 57.94 36.24 58.25 33.58 58.25"/><path class="cls-3" d="M39,57.08a1.14,1.14,0,0,0,.11.44.84.84,0,0,0,.25.3,1,1,0,0,0,.35.17,1.84,1.84,0,0,0,.41,0,1.27,1.27,0,0,0,.46-.07.92.92,0,0,0,.31-.17.62.62,0,0,0,.17-.26.81.81,0,0,0,.06-.31.6.6,0,0,0-.1-.37.75.75,0,0,0-.27-.23,1.88,1.88,0,0,0-.38-.15l-.44-.1-.45-.13a1.23,1.23,0,0,1-.38-.19.91.91,0,0,1-.27-.31.94.94,0,0,1-.1-.47,1,1,0,0,1,.08-.39,1,1,0,0,1,.25-.34,1.32,1.32,0,0,1,.42-.24,2,2,0,0,1,.58-.08,1.72,1.72,0,0,1,.58.09,1.29,1.29,0,0,1,.41.25,1.09,1.09,0,0,1,.25.38,1.33,1.33,0,0,1,.08.45H41a.8.8,0,0,0-.08-.39.71.71,0,0,0-.21-.27.89.89,0,0,0-.31-.15,1.49,1.49,0,0,0-.36-.05,1.34,1.34,0,0,0-.48.08.77.77,0,0,0-.31.21.72.72,0,0,0-.15.27.66.66,0,0,0,0,.31.48.48,0,0,0,.15.3.91.91,0,0,0,.3.19,1.89,1.89,0,0,0,.38.12l.43.1a3.31,3.31,0,0,1,.42.12,1.23,1.23,0,0,1,.36.19.88.88,0,0,1,.26.31,1.09,1.09,0,0,1,.09.47,1,1,0,0,1-.37.85,1.67,1.67,0,0,1-1.06.3,2.12,2.12,0,0,1-.57-.08A1.61,1.61,0,0,1,39,58a1.08,1.08,0,0,1-.3-.4,1.4,1.4,0,0,1-.1-.56Z"/><path class="cls-3" d="M44.2,57.08a1.14,1.14,0,0,0,.11.44.84.84,0,0,0,.25.3,1,1,0,0,0,.34.17,1.93,1.93,0,0,0,.42,0,1.27,1.27,0,0,0,.46-.07.92.92,0,0,0,.31-.17.62.62,0,0,0,.17-.26.81.81,0,0,0,.06-.31.6.6,0,0,0-.1-.37.75.75,0,0,0-.27-.23,1.88,1.88,0,0,0-.38-.15l-.45-.1-.44-.13a1.23,1.23,0,0,1-.38-.19.91.91,0,0,1-.27-.31.94.94,0,0,1-.1-.47,1,1,0,0,1,.08-.39,1,1,0,0,1,.25-.34,1.32,1.32,0,0,1,.42-.24,2,2,0,0,1,.58-.08,1.72,1.72,0,0,1,.58.09,1.29,1.29,0,0,1,.41.25,1.09,1.09,0,0,1,.25.38,1.33,1.33,0,0,1,.08.45h-.36a.8.8,0,0,0-.08-.39.71.71,0,0,0-.21-.27.89.89,0,0,0-.31-.15,1.49,1.49,0,0,0-.36-.05,1.34,1.34,0,0,0-.48.08.77.77,0,0,0-.31.21.72.72,0,0,0-.15.27.66.66,0,0,0,0,.31.48.48,0,0,0,.15.3.91.91,0,0,0,.3.19,1.89,1.89,0,0,0,.38.12l.43.1a3.31,3.31,0,0,1,.42.12,1.23,1.23,0,0,1,.36.19.88.88,0,0,1,.26.31,1.09,1.09,0,0,1,.09.47,1,1,0,0,1-.37.85,1.69,1.69,0,0,1-1.06.3,2.12,2.12,0,0,1-.57-.08,1.61,1.61,0,0,1-.45-.24,1.08,1.08,0,0,1-.3-.4,1.4,1.4,0,0,1-.1-.56Z"/><rect class="cls-3" x="49.41" y="54.33" width="0.37" height="3.92"/><polygon class="cls-3" points="53.06 54.83 53.05 54.83 53.05 58.25 52.68 58.25 52.68 54.33 53.1 54.33 55.37 57.76 55.38 57.76 55.38 54.33 55.75 54.33 55.75 58.25 55.32 58.25 53.06 54.83"/><path class="cls-3" d="M60.2,56.54v-.31h1.68v2h-.32v-.67a2.62,2.62,0,0,1-.23.32,1.48,1.48,0,0,1-.31.25,2,2,0,0,1-.41.15,2,2,0,0,1-.51.06,1.74,1.74,0,0,1-.69-.14,1.29,1.29,0,0,1-.54-.39,1.57,1.57,0,0,1-.36-.65,2.77,2.77,0,0,1-.13-.91,2.86,2.86,0,0,1,.11-.8,1.62,1.62,0,0,1,.34-.65,1.53,1.53,0,0,1,.56-.44,2,2,0,0,1,.8-.15,2.22,2.22,0,0,1,.59.07,1.53,1.53,0,0,1,.48.23,1.67,1.67,0,0,1,.36.39,1.58,1.58,0,0,1,.21.55h-.38a1,1,0,0,0-.16-.39,1.15,1.15,0,0,0-.28-.3,1.82,1.82,0,0,0-.37-.18,1.42,1.42,0,0,0-.42-.06,1.46,1.46,0,0,0-.66.14,1.22,1.22,0,0,0-.46.38,1.63,1.63,0,0,0-.26.6,3,3,0,0,0-.09.76,1.87,1.87,0,0,0,.1.62,1.47,1.47,0,0,0,.27.51,1.43,1.43,0,0,0,.45.36,1.32,1.32,0,0,0,.6.13,1.24,1.24,0,0,0,.33,0,1.42,1.42,0,0,0,.33-.11,1.48,1.48,0,0,0,.29-.22,1.16,1.16,0,0,0,.24-.32,1.29,1.29,0,0,0,.12-.38,2,2,0,0,0,0-.43Z"/></g></g></g></svg>